<mxfile host="app.diagrams.net" modified="2024-05-05T14:51:27.977Z" agent="Mozilla/5.0 (X11; Linux x86_64) AppleWebKit/537.36 (KHTML, like Gecko) Chrome/124.0.0.0 Safari/537.36" etag="7ZIK8Xmsee3FA5IlIdwF" version="24.3.1" type="device">
  <diagram id="C5RBs43oDa-KdzZeNtuy" name="Page-1">
    <mxGraphModel dx="3310" dy="1433" grid="1" gridSize="10" guides="1" tooltips="1" connect="1" arrows="1" fold="1" page="1" pageScale="1" pageWidth="827" pageHeight="1169" math="0" shadow="0">
      <root>
        <mxCell id="WIyWlLk6GJQsqaUBKTNV-0" />
        <mxCell id="WIyWlLk6GJQsqaUBKTNV-1" parent="WIyWlLk6GJQsqaUBKTNV-0" />
        <mxCell id="l0hXxtKMvYqcRxEXDyRQ-0" value="" style="rounded=1;whiteSpace=wrap;html=1;fontSize=20;" parent="WIyWlLk6GJQsqaUBKTNV-1" vertex="1">
          <mxGeometry x="-120" y="140" width="990" height="220" as="geometry" />
        </mxCell>
        <mxCell id="l0hXxtKMvYqcRxEXDyRQ-1" value="AMF" style="rounded=1;whiteSpace=wrap;html=1;fontSize=20;" parent="WIyWlLk6GJQsqaUBKTNV-1" vertex="1">
          <mxGeometry x="330" y="170" width="120" height="60" as="geometry" />
        </mxCell>
        <mxCell id="l0hXxtKMvYqcRxEXDyRQ-2" value="AUSF" style="rounded=1;whiteSpace=wrap;html=1;fontSize=20;" parent="WIyWlLk6GJQsqaUBKTNV-1" vertex="1">
          <mxGeometry x="460" y="170" width="120" height="60" as="geometry" />
        </mxCell>
        <mxCell id="l0hXxtKMvYqcRxEXDyRQ-3" value="BSF" style="rounded=1;whiteSpace=wrap;html=1;fontSize=20;" parent="WIyWlLk6GJQsqaUBKTNV-1" vertex="1">
          <mxGeometry x="40" y="270" width="120" height="60" as="geometry" />
        </mxCell>
        <mxCell id="l0hXxtKMvYqcRxEXDyRQ-4" value="SCP" style="rounded=1;whiteSpace=wrap;html=1;fontSize=20;" parent="WIyWlLk6GJQsqaUBKTNV-1" vertex="1">
          <mxGeometry x="40" y="170" width="120" height="60" as="geometry" />
        </mxCell>
        <mxCell id="l0hXxtKMvYqcRxEXDyRQ-5" value="PCF" style="rounded=1;whiteSpace=wrap;html=1;fontSize=20;" parent="WIyWlLk6GJQsqaUBKTNV-1" vertex="1">
          <mxGeometry x="590" y="170" width="120" height="60" as="geometry" />
        </mxCell>
        <mxCell id="l0hXxtKMvYqcRxEXDyRQ-6" value="UDR" style="rounded=1;whiteSpace=wrap;html=1;fontSize=20;" parent="WIyWlLk6GJQsqaUBKTNV-1" vertex="1">
          <mxGeometry x="200" y="270" width="120" height="60" as="geometry" />
        </mxCell>
        <mxCell id="l0hXxtKMvYqcRxEXDyRQ-7" value="UDM" style="rounded=1;whiteSpace=wrap;html=1;fontSize=20;" parent="WIyWlLk6GJQsqaUBKTNV-1" vertex="1">
          <mxGeometry x="330" y="270" width="120" height="60" as="geometry" />
        </mxCell>
        <mxCell id="l0hXxtKMvYqcRxEXDyRQ-8" value="NSSF" style="rounded=1;whiteSpace=wrap;html=1;fontSize=20;" parent="WIyWlLk6GJQsqaUBKTNV-1" vertex="1">
          <mxGeometry x="460" y="270" width="120" height="60" as="geometry" />
        </mxCell>
        <mxCell id="l0hXxtKMvYqcRxEXDyRQ-9" value="NRF" style="rounded=1;whiteSpace=wrap;html=1;fontSize=20;" parent="WIyWlLk6GJQsqaUBKTNV-1" vertex="1">
          <mxGeometry x="720" y="170" width="120" height="60" as="geometry" />
        </mxCell>
        <mxCell id="l0hXxtKMvYqcRxEXDyRQ-10" value="WebUI" style="rounded=1;whiteSpace=wrap;html=1;fontSize=20;" parent="WIyWlLk6GJQsqaUBKTNV-1" vertex="1">
          <mxGeometry x="-90" y="170" width="120" height="60" as="geometry" />
        </mxCell>
        <mxCell id="l0hXxtKMvYqcRxEXDyRQ-15" value="" style="shape=link;html=1;rounded=0;entryX=0.97;entryY=0.5;entryDx=0;entryDy=0;entryPerimeter=0;exitX=0.036;exitY=0.499;exitDx=0;exitDy=0;exitPerimeter=0;fontSize=20;" parent="WIyWlLk6GJQsqaUBKTNV-1" target="l0hXxtKMvYqcRxEXDyRQ-0" edge="1">
          <mxGeometry width="100" relative="1" as="geometry">
            <mxPoint x="-80" y="249.29" as="sourcePoint" />
            <mxPoint x="690.2400000000001" y="249.29" as="targetPoint" />
          </mxGeometry>
        </mxCell>
        <mxCell id="l0hXxtKMvYqcRxEXDyRQ-18" value="Docker/100.0.0.0/24" style="edgeLabel;html=1;align=center;verticalAlign=middle;resizable=0;points=[];fontSize=20;" parent="l0hXxtKMvYqcRxEXDyRQ-15" vertex="1" connectable="0">
          <mxGeometry x="0.1039" y="1" relative="1" as="geometry">
            <mxPoint as="offset" />
          </mxGeometry>
        </mxCell>
        <mxCell id="l0hXxtKMvYqcRxEXDyRQ-16" value="SMF1" style="rounded=1;whiteSpace=wrap;html=1;fontSize=20;" parent="WIyWlLk6GJQsqaUBKTNV-1" vertex="1">
          <mxGeometry x="590" y="270" width="120" height="60" as="geometry" />
        </mxCell>
        <mxCell id="l0hXxtKMvYqcRxEXDyRQ-17" value="UPF1" style="rounded=1;whiteSpace=wrap;html=1;fontSize=20;" parent="WIyWlLk6GJQsqaUBKTNV-1" vertex="1">
          <mxGeometry x="720" y="270" width="120" height="60" as="geometry" />
        </mxCell>
        <mxCell id="l0hXxtKMvYqcRxEXDyRQ-20" value="&lt;b style=&quot;font-size: 20px;&quot;&gt;&lt;font style=&quot;font-size: 20px;&quot;&gt;Workstation 192.168.50.61&lt;/font&gt;&lt;/b&gt;" style="text;html=1;align=center;verticalAlign=middle;whiteSpace=wrap;rounded=0;fontSize=20;" parent="WIyWlLk6GJQsqaUBKTNV-1" vertex="1">
          <mxGeometry x="330" y="100" width="105" height="30" as="geometry" />
        </mxCell>
        <mxCell id="l0hXxtKMvYqcRxEXDyRQ-21" value="" style="shape=link;html=1;rounded=0;fontSize=20;" parent="WIyWlLk6GJQsqaUBKTNV-1" edge="1">
          <mxGeometry width="100" relative="1" as="geometry">
            <mxPoint x="250" y="476" as="sourcePoint" />
            <mxPoint x="780" y="476" as="targetPoint" />
          </mxGeometry>
        </mxCell>
        <mxCell id="l0hXxtKMvYqcRxEXDyRQ-24" value="cloud/10.0.100.1" style="edgeLabel;html=1;align=center;verticalAlign=middle;resizable=0;points=[];fontSize=20;" parent="l0hXxtKMvYqcRxEXDyRQ-21" vertex="1" connectable="0">
          <mxGeometry x="0.0423" y="-3" relative="1" as="geometry">
            <mxPoint as="offset" />
          </mxGeometry>
        </mxCell>
        <mxCell id="l0hXxtKMvYqcRxEXDyRQ-28" value="" style="rounded=1;whiteSpace=wrap;html=1;fontSize=20;" parent="WIyWlLk6GJQsqaUBKTNV-1" vertex="1">
          <mxGeometry x="-120" y="650" width="990" height="220" as="geometry" />
        </mxCell>
        <mxCell id="l0hXxtKMvYqcRxEXDyRQ-23" value="" style="shape=link;html=1;rounded=0;fontSize=20;" parent="WIyWlLk6GJQsqaUBKTNV-1" edge="1">
          <mxGeometry width="100" relative="1" as="geometry">
            <mxPoint x="250" y="546" as="sourcePoint" />
            <mxPoint x="780" y="546" as="targetPoint" />
          </mxGeometry>
        </mxCell>
        <mxCell id="l0hXxtKMvYqcRxEXDyRQ-27" value="edge/10.0.101.1" style="edgeLabel;html=1;align=center;verticalAlign=middle;resizable=0;points=[];fontSize=20;" parent="l0hXxtKMvYqcRxEXDyRQ-23" vertex="1" connectable="0">
          <mxGeometry x="-0.0705" relative="1" as="geometry">
            <mxPoint x="29" as="offset" />
          </mxGeometry>
        </mxCell>
        <mxCell id="l0hXxtKMvYqcRxEXDyRQ-29" value="&lt;b style=&quot;font-size: 20px;&quot;&gt;&lt;font style=&quot;font-size: 20px;&quot;&gt;Raspberry Pi 5 192.168.50.82&lt;/font&gt;&lt;/b&gt;" style="text;html=1;align=center;verticalAlign=middle;whiteSpace=wrap;rounded=0;fontSize=20;" parent="WIyWlLk6GJQsqaUBKTNV-1" vertex="1">
          <mxGeometry x="300" y="610" width="167.5" height="30" as="geometry" />
        </mxCell>
        <mxCell id="l0hXxtKMvYqcRxEXDyRQ-30" value="" style="shape=link;html=1;rounded=0;entryX=0.949;entryY=0.545;entryDx=0;entryDy=0;entryPerimeter=0;fontSize=20;" parent="WIyWlLk6GJQsqaUBKTNV-1" edge="1">
          <mxGeometry width="100" relative="1" as="geometry">
            <mxPoint x="-60" y="770" as="sourcePoint" />
            <mxPoint x="839.5100000000002" y="769.9000000000001" as="targetPoint" />
          </mxGeometry>
        </mxCell>
        <mxCell id="l0hXxtKMvYqcRxEXDyRQ-31" value="Docker/100.0.0.0/24" style="edgeLabel;html=1;align=center;verticalAlign=middle;resizable=0;points=[];fontSize=20;" parent="l0hXxtKMvYqcRxEXDyRQ-30" vertex="1" connectable="0">
          <mxGeometry x="0.1039" y="1" relative="1" as="geometry">
            <mxPoint as="offset" />
          </mxGeometry>
        </mxCell>
        <mxCell id="l0hXxtKMvYqcRxEXDyRQ-32" value="SMF2" style="rounded=1;whiteSpace=wrap;html=1;fontSize=20;" parent="WIyWlLk6GJQsqaUBKTNV-1" vertex="1">
          <mxGeometry x="590" y="680" width="120" height="60" as="geometry" />
        </mxCell>
        <mxCell id="l0hXxtKMvYqcRxEXDyRQ-33" value="UPF2" style="rounded=1;whiteSpace=wrap;html=1;fontSize=20;" parent="WIyWlLk6GJQsqaUBKTNV-1" vertex="1">
          <mxGeometry x="720" y="680" width="120" height="60" as="geometry" />
        </mxCell>
        <mxCell id="l0hXxtKMvYqcRxEXDyRQ-35" value="" style="shape=image;verticalLabelPosition=bottom;labelBackgroundColor=default;verticalAlign=top;aspect=fixed;imageAspect=0;image=https://ingun.com/media/CMS%20Media/campaigns/5G/campaign-5G-icon-antenne_M-min.png;clipPath=inset(23.78% 31% 24.67% 31.33%);" parent="WIyWlLk6GJQsqaUBKTNV-1" vertex="1">
          <mxGeometry x="90" y="430" width="165.6" height="170" as="geometry" />
        </mxCell>
        <mxCell id="l0hXxtKMvYqcRxEXDyRQ-36" value="&lt;font style=&quot;font-size: 20px;&quot;&gt;Amarisoft&lt;/font&gt;&lt;div style=&quot;font-size: 20px;&quot;&gt;&lt;font style=&quot;font-size: 20px;&quot;&gt;192.168.50.60&lt;/font&gt;&lt;/div&gt;" style="text;html=1;align=center;verticalAlign=middle;whiteSpace=wrap;rounded=0;fontStyle=1" parent="WIyWlLk6GJQsqaUBKTNV-1" vertex="1">
          <mxGeometry x="144.20000000000002" y="390" width="57.2" height="30" as="geometry" />
        </mxCell>
        <mxCell id="l0hXxtKMvYqcRxEXDyRQ-43" value="&lt;b&gt;5G UE&lt;/b&gt;" style="rounded=1;whiteSpace=wrap;html=1;fontSize=20;" parent="WIyWlLk6GJQsqaUBKTNV-1" vertex="1">
          <mxGeometry x="-120" y="475" width="162" height="80" as="geometry" />
        </mxCell>
        <mxCell id="l0hXxtKMvYqcRxEXDyRQ-46" value="" style="shape=image;verticalLabelPosition=bottom;labelBackgroundColor=default;verticalAlign=top;aspect=fixed;imageAspect=0;image=https://icons.veryicon.com/png/o/miscellaneous/medium-thin-linear-icon/signal-28.png;rotation=90;fontSize=20;" parent="WIyWlLk6GJQsqaUBKTNV-1" vertex="1">
          <mxGeometry x="42" y="485" width="60" height="60" as="geometry" />
        </mxCell>
        <mxCell id="l0hXxtKMvYqcRxEXDyRQ-48" value="" style="shape=link;html=1;rounded=0;fontSize=20;exitX=1;exitY=0.5;exitDx=0;exitDy=0;" parent="WIyWlLk6GJQsqaUBKTNV-1" source="l0hXxtKMvYqcRxEXDyRQ-17" edge="1">
          <mxGeometry width="100" relative="1" as="geometry">
            <mxPoint x="780" y="330" as="sourcePoint" />
            <mxPoint x="1120" y="300" as="targetPoint" />
          </mxGeometry>
        </mxCell>
        <mxCell id="l0hXxtKMvYqcRxEXDyRQ-49" value="cloud/10.0.100.1" style="edgeLabel;html=1;align=center;verticalAlign=middle;resizable=0;points=[];fontSize=20;" parent="l0hXxtKMvYqcRxEXDyRQ-48" vertex="1" connectable="0">
          <mxGeometry x="0.0423" y="-3" relative="1" as="geometry">
            <mxPoint as="offset" />
          </mxGeometry>
        </mxCell>
        <mxCell id="l0hXxtKMvYqcRxEXDyRQ-51" value="" style="shape=link;html=1;rounded=0;fontSize=20;exitX=1;exitY=0.5;exitDx=0;exitDy=0;" parent="WIyWlLk6GJQsqaUBKTNV-1" source="l0hXxtKMvYqcRxEXDyRQ-33" edge="1">
          <mxGeometry width="100" relative="1" as="geometry">
            <mxPoint x="290" y="556" as="sourcePoint" />
            <mxPoint x="1120" y="710" as="targetPoint" />
          </mxGeometry>
        </mxCell>
        <mxCell id="l0hXxtKMvYqcRxEXDyRQ-52" value="edge/10.0.101.1" style="edgeLabel;html=1;align=center;verticalAlign=middle;resizable=0;points=[];fontSize=20;" parent="l0hXxtKMvYqcRxEXDyRQ-51" vertex="1" connectable="0">
          <mxGeometry x="-0.0705" relative="1" as="geometry">
            <mxPoint x="29" as="offset" />
          </mxGeometry>
        </mxCell>
        <mxCell id="l0hXxtKMvYqcRxEXDyRQ-53" value="" style="shape=link;html=1;rounded=0;exitX=0.5;exitY=0;exitDx=0;exitDy=0;" parent="WIyWlLk6GJQsqaUBKTNV-1" source="l0hXxtKMvYqcRxEXDyRQ-58" edge="1">
          <mxGeometry width="100" relative="1" as="geometry">
            <mxPoint x="1120" y="440" as="sourcePoint" />
            <mxPoint x="1120" y="300" as="targetPoint" />
          </mxGeometry>
        </mxCell>
        <mxCell id="l0hXxtKMvYqcRxEXDyRQ-54" value="" style="shape=link;html=1;rounded=0;exitX=0.5;exitY=1;exitDx=0;exitDy=0;" parent="WIyWlLk6GJQsqaUBKTNV-1" source="l0hXxtKMvYqcRxEXDyRQ-58" edge="1">
          <mxGeometry width="100" relative="1" as="geometry">
            <mxPoint x="1120" y="550" as="sourcePoint" />
            <mxPoint x="1120" y="710" as="targetPoint" />
          </mxGeometry>
        </mxCell>
        <mxCell id="l0hXxtKMvYqcRxEXDyRQ-55" value="" style="shape=link;html=1;rounded=0;entryX=0.5;entryY=0;entryDx=0;entryDy=0;" parent="WIyWlLk6GJQsqaUBKTNV-1" target="l0hXxtKMvYqcRxEXDyRQ-33" edge="1">
          <mxGeometry width="100" relative="1" as="geometry">
            <mxPoint x="780" y="550" as="sourcePoint" />
            <mxPoint x="780" y="620" as="targetPoint" />
          </mxGeometry>
        </mxCell>
        <mxCell id="l0hXxtKMvYqcRxEXDyRQ-56" value="" style="shape=link;html=1;rounded=0;entryX=0.5;entryY=1;entryDx=0;entryDy=0;" parent="WIyWlLk6GJQsqaUBKTNV-1" target="l0hXxtKMvYqcRxEXDyRQ-17" edge="1">
          <mxGeometry width="100" relative="1" as="geometry">
            <mxPoint x="780" y="480" as="sourcePoint" />
            <mxPoint x="780" y="490" as="targetPoint" />
          </mxGeometry>
        </mxCell>
        <mxCell id="l0hXxtKMvYqcRxEXDyRQ-58" value="" style="rhombus;whiteSpace=wrap;html=1;" parent="WIyWlLk6GJQsqaUBKTNV-1" vertex="1">
          <mxGeometry x="1080" y="475" width="80" height="80" as="geometry" />
        </mxCell>
        <mxCell id="l0hXxtKMvYqcRxEXDyRQ-59" value="&lt;b style=&quot;font-size: 20px;&quot;&gt;Internet&lt;/b&gt;" style="ellipse;shape=cloud;whiteSpace=wrap;html=1;" parent="WIyWlLk6GJQsqaUBKTNV-1" vertex="1">
          <mxGeometry x="1022.5" y="440" width="195" height="130" as="geometry" />
        </mxCell>
        <mxCell id="l0hXxtKMvYqcRxEXDyRQ-60" value="MongoDB" style="rounded=1;whiteSpace=wrap;html=1;fontSize=20;" parent="WIyWlLk6GJQsqaUBKTNV-1" vertex="1">
          <mxGeometry x="-90" y="270" width="120" height="60" as="geometry" />
        </mxCell>
      </root>
    </mxGraphModel>
  </diagram>
</mxfile>
